PathFileType	4	(X/Y/Z)	D:\TRACE\spotREDO_2-26-24\spot_justArm_Motion_3_3-v60.trc
DataRate	CameraRate	NumFrames	NumMarkers	Units	OrigDataRate	OrigDataStartFrame	OrigNumFrames
100.00	100.00	      21	9	mm	100.00	2488	      6633
Frame#	Time	front left toe			Front right toe			aft left toe			aft right toe			Arm			FL body			FR body			AL Body			AR Body			
		X1	Y1	Z1	X2	Y2	Z2	X3	Y3	Z3	X4	Y4	Z4	X5	Y5	Z5	X6	Y6	Z6	X7	Y7	Z7	X8	Y8	Z8	X9	Y9	Z9	

2488	24.870	-183.50426	15.02213	-283.46570	310.11548	15.52489	-253.91737	-217.80487	31.77109	334.39908	270.41629	34.15922	364.91602	-47.11875	688.06659	-802.10229	4.58339	536.90399	-331.35205	159.89110	541.16370	-324.43616	-40.71063	573.92450	550.57269	106.94395	574.34326	558.64459	
2489	24.880	-183.48645	14.90539	-283.44540	310.06152	15.39337	-253.99416	-217.83305	32.05022	334.36749	270.56671	34.26385	364.85510	-44.93933	686.89636	-802.77112	4.38833	537.05499	-331.12631	159.61612	541.48645	-324.22003	-40.50389	573.93134	550.87280	107.33270	574.48431	559.04620	
2490	24.890	-183.46120	14.60887	-283.30896	309.92151	15.26170	-254.03966	-217.82118	32.23647	334.35413	270.37735	34.28645	364.71735	-46.00142	685.11017	-806.67706	4.07932	537.07251	-330.89133	159.45097	541.62994	-324.09882	-40.43776	574.01801	551.22351	107.41089	574.59479	559.14441	
2491	24.900	-183.52200	14.45404	-283.33374	309.85101	15.13805	-254.16792	-217.83104	32.38303	334.39337	270.44424	34.55762	364.61496	-45.04183	683.79181	-808.19189	3.28862	537.24847	-331.01291	159.13210	541.50122	-324.00046	-40.33225	574.18146	551.45398	107.38472	574.92371	559.22327	
2492	24.910	-183.44009	14.18129	-283.33649	309.83502	15.04366	-254.24988	-217.80965	32.54512	334.34137	270.37555	34.92301	364.54196	-44.00177	682.34589	-809.28784	3.68878	536.77136	-330.63791	158.80013	541.41541	-324.22482	-40.32509	574.52405	551.60992	107.38697	575.32855	559.35999	
2493	24.920	-183.44855	13.99751	-283.37122	309.74356	14.95626	-254.30186	-217.86296	32.63903	334.32526	270.18979	35.20823	364.46591	-43.22435	681.33447	-809.37457	3.59540	536.58929	-330.65671	158.81761	541.05524	-324.21695	-40.43530	574.78748	551.63153	107.17184	575.56824	559.33594	
2494	24.930	-183.39676	13.90734	-283.45163	309.86432	14.77708	-254.25780	-217.84816	32.63569	334.23276	270.00943	35.34513	364.39392	-42.54671	680.40369	-809.27167	3.90570	536.18213	-330.80341	158.97729	540.61847	-324.29248	-40.75322	574.96954	551.50757	106.74722	575.78302	559.33789	
2495	24.940	-183.01031	13.81166	-283.58282	309.92813	14.48774	-254.22586	-217.93378	32.66644	334.16794	270.06268	35.58056	364.31207	-40.05715	679.77203	-807.02454	4.03494	535.86328	-330.84250	159.20357	540.44775	-324.46402	-41.44074	575.07849	551.16516	106.22637	575.81091	559.30627	
2496	24.950	-182.85378	13.72892	-283.72217	310.16376	14.34173	-254.08546	-217.92017	32.68567	333.92383	270.15225	35.82691	364.41425	-41.50556	679.29498	-808.47443	4.51457	535.49353	-330.86746	159.54132	540.14429	-324.26489	-42.24374	575.12347	550.87262	105.37971	575.89722	559.23492	
2497	24.960	-182.64851	13.68065	-283.97198	310.56766	14.33893	-253.90633	-217.90149	32.78451	333.87967	270.20096	35.89209	364.39981	-41.39900	679.41937	-808.16974	5.06905	535.16980	-330.95615	159.82559	539.93005	-324.21344	-42.69673	575.16937	550.65002	104.99689	575.86926	559.22778	
2498	24.970	-182.32005	13.59089	-284.21524	311.05118	14.27325	-253.68922	-217.80910	32.85106	333.85809	270.44437	36.05164	364.39951	-41.46868	679.53119	-807.88739	5.56681	534.93298	-330.99237	160.44344	539.71106	-324.08069	-43.19934	575.19257	550.48651	104.30675	575.89728	559.15509	
2499	24.980	-182.03770	13.50197	-284.32242	311.43274	14.25750	-253.65440	-217.68434	32.91755	333.85294	270.57947	36.12832	364.29648	-41.81689	679.80896	-807.76038	6.08596	534.75427	-331.04242	160.91971	539.68182	-323.96567	-43.66113	575.24896	550.41278	103.78519	576.07361	559.00958	
2500	24.990	-181.83081	13.34300	-284.41641	311.67783	14.00008	-253.72894	-217.47990	32.98827	333.75049	270.98871	36.33999	364.23645	-42.14427	680.13562	-807.53778	6.40862	534.79645	-331.11859	161.22046	539.64490	-323.88925	-43.96645	575.27405	550.37164	103.50495	576.10645	558.99316	
2501	25.000	-181.66708	13.30001	-284.45810	311.91110	14.27972	-253.56766	-217.23425	33.03284	333.66980	271.30258	36.47006	364.19995	-42.93082	680.68793	-807.19550	6.67127	534.81152	-331.13013	161.48601	539.73010	-323.82309	-44.03678	575.26660	550.37988	103.43786	576.13623	559.00592	
2502	25.010	-181.57700	13.28063	-284.50134	311.71680	13.78218	-254.21587	-216.99379	33.04154	333.63184	271.52853	36.56849	364.09241	-41.97811	681.63739	-805.39014	6.74858	534.89172	-331.14450	161.55675	539.82080	-323.81979	-44.01046	575.25037	550.37469	103.46438	576.09796	559.04651	
2503	25.020	-181.43488	13.17293	-284.50070	311.91156	13.71554	-254.05293	-216.74246	33.25875	333.65573	271.87143	36.75134	364.03964	-44.84083	682.03589	-807.22766	6.73790	534.97559	-331.08948	161.57944	539.88361	-323.82617	-43.74810	575.21820	550.41364	103.76865	576.06165	559.05133	
2504	25.030	-181.37378	13.16866	-284.50766	311.90604	14.08274	-253.86299	-216.31584	33.32462	333.59842	271.94165	36.78431	363.99664	-45.58795	682.48370	-807.20380	6.67307	534.99414	-331.03027	161.47359	539.94745	-323.84024	-43.42512	575.15784	550.41144	104.05692	576.09082	559.15839	
2505	25.040	-181.25734	13.06936	-284.43192	312.02393	13.61055	-254.13031	-216.16681	33.45681	333.57690	272.01010	36.80504	363.91876	-46.24028	682.97815	-807.07837	6.49169	535.01288	-330.96707	161.38721	539.98389	-323.84100	-43.05387	575.15729	550.45514	104.59097	576.01758	559.34875	
2506	25.050	-181.09761	12.96977	-284.44415	312.21820	13.60684	-254.19182	-215.96964	33.60282	333.61591	272.09415	36.82457	363.84210	-46.75177	683.52228	-806.99396	6.16951	535.05933	-330.87708	161.17146	540.01776	-323.88770	-42.63790	575.17346	550.55603	105.19994	576.11450	559.39935	
2507	25.060	-180.95895	12.89123	-284.35599	312.47263	13.51979	-254.47733	-215.47829	33.78399	333.58667	272.26974	36.88173	363.75861	-47.25622	683.71606	-806.86499	5.89502	535.10132	-330.81140	160.98293	540.08240	-323.93124	-42.26567	575.17407	550.64996	105.82771	576.18298	559.78821	
2508	25.070	-180.84888	12.81612	-284.32339	312.72119	13.44083	-254.70744	-215.34254	33.97688	333.45877	272.68823	36.95118	363.70148	-47.39478	683.95471	-806.79193	5.71544	535.13129	-330.80258	160.60529	540.14880	-324.04996	-41.80659	575.23871	550.68665	106.35759	576.30664	559.72388	
